<svg width="439" height="318" viewBox="0 0 439 318" fill="none" xmlns="http://www.w3.org/2000/svg">
<rect x="14" width="152" height="103" rx="10" fill="#9E9C9C"/>
<rect x="27" y="7" width="126" height="90" rx="10" fill="#D9D9D9"/>
<rect y="103" width="179" height="14" rx="7" fill="#9E9C9C"/>
<mask id="path-4-inside-1_12_96" fill="white">
<path d="M90 43C99.9411 43 108 57.9237 108 76.333C108 78.6161 107.876 80.8459 107.64 83H72.3604C72.1242 80.8459 72 78.6161 72 76.333C72.0001 57.9237 80.0589 43 90 43Z"/>
</mask>
<path d="M90 43C99.9411 43 108 57.9237 108 76.333C108 78.6161 107.876 80.8459 107.64 83H72.3604C72.1242 80.8459 72 78.6161 72 76.333C72.0001 57.9237 80.0589 43 90 43Z" fill="#9E9C9C"/>
<path d="M108 76.333L109 76.333L109 76.333L108 76.333ZM107.64 83V84H108.536L108.634 83.109L107.64 83ZM72.3604 83L71.3663 83.109L71.464 84H72.3604V83ZM72 76.333L71 76.333V76.333H72ZM90 43V44C94.4279 44 98.6621 47.3385 101.848 53.2382C105.012 59.0977 107 67.2611 107 76.333L108 76.333L109 76.333C109 66.9955 106.958 58.4925 103.608 52.2878C100.279 46.1233 95.5132 42 90 42V43ZM108 76.333H107C107 78.58 106.878 80.7734 106.646 82.891L107.64 83L108.634 83.109C108.874 80.9185 109 78.6523 109 76.333H108ZM107.64 83V82H72.3604V83V84H107.64V83ZM72.3604 83L73.3544 82.891C73.1223 80.7734 73 78.58 73 76.333H72H71C71 78.6523 71.1262 80.9185 71.3663 83.109L72.3604 83ZM72 76.333L73 76.333C73 67.2611 74.9879 59.0977 78.152 53.2382C81.3379 47.3385 85.5721 44 90 44V43V42C84.4868 42 79.7211 46.1233 76.3922 52.2878C73.0417 58.4925 71 66.9955 71 76.333L72 76.333Z" fill="#777676" mask="url(#path-4-inside-1_12_96)"/>
<circle cx="90" cy="35" r="14.5" fill="#9E9C9C" stroke="#777676"/>
<rect x="274" width="152" height="103" rx="10" fill="#9E9C9C"/>
<rect x="287" y="7" width="126" height="90" rx="10" fill="#D9D9D9"/>
<rect x="260" y="103" width="179" height="14" rx="7" fill="#9E9C9C"/>
<circle cx="349.5" cy="51.5" r="35.5" fill="#9E9C9C"/>
<path d="M332.16 21C324.493 32.1667 313.76 60.2 332.16 83" stroke="#777676"/>
<path d="M367 83C374.667 71.8333 385.4 43.8 367 21" stroke="#777676"/>
<path d="M327 26C335.465 32.037 356.716 40.4888 374 26" stroke="#777676"/>
<path d="M374 78C365.535 71.963 344.284 63.5112 327 78" stroke="#777676"/>
<path d="M342 17.5C335.5 31.3333 326.4 64.3 342 85.5" stroke="#777676"/>
<path d="M317 36C330.223 42.037 361.735 50.4888 382 36" stroke="#777676"/>
<path d="M382 65C368.777 58.963 337.265 50.5112 317 65" stroke="#777676"/>
<path d="M358 86C364.5 72.1667 373.6 39.2 358 18" stroke="#777676"/>
<path d="M349 17V87" stroke="#777676"/>
<path d="M314 52L384 52" stroke="#777676"/>
<rect x="7.5" y="204.5" width="102" height="113" rx="9.5" fill="#9E9C9C" stroke="#777676"/>
<rect x="29.5" y="194.5" width="102" height="113" rx="9.5" fill="#9E9C9C" stroke="#777676"/>
<rect x="52.5" y="178.5" width="102" height="113" rx="9.5" fill="#9E9C9C" stroke="#777676"/>
<rect x="296" y="208" width="108" height="77" rx="10" fill="#9E9C9C"/>
<rect x="287" y="272" width="126" height="16" rx="8" fill="#D9D9D9"/>
<rect x="287" y="239" width="126" height="16" rx="8" fill="#D9D9D9"/>
<rect x="274.5" y="202.5" width="151" height="23" rx="9.5" fill="#9E9C9C" stroke="#777676"/>
<rect x="287" y="206" width="126" height="16" rx="8" fill="#D9D9D9"/>
<rect x="274.5" y="235.5" width="151" height="23" rx="9.5" fill="#9E9C9C" stroke="#777676"/>
<rect x="274.5" y="268.5" width="151" height="23" rx="9.5" fill="#9E9C9C" stroke="#777676"/>
<rect x="287" y="239" width="126" height="16" rx="8" fill="#D9D9D9"/>
<rect x="287" y="272" width="126" height="16" rx="8" fill="#D9D9D9"/>
<path d="M242.828 61.8284C244.391 60.2663 244.391 57.7337 242.828 56.1716L217.373 30.7157C215.81 29.1536 213.278 29.1536 211.716 30.7157C210.154 32.2778 210.154 34.8105 211.716 36.3726L234.343 59L211.716 81.6274C210.154 83.1895 210.154 85.7222 211.716 87.2843C213.278 88.8464 215.81 88.8464 217.373 87.2843L242.828 61.8284ZM193 59L193 63L240 63L240 59L240 55L193 55L193 59Z" fill="white"/>
<path d="M347.512 180.847C349.084 182.398 351.617 182.381 353.168 180.808L378.45 155.179C380.001 153.606 379.984 151.074 378.411 149.522C376.839 147.971 374.306 147.988 372.755 149.561L350.282 172.342L327.501 149.87C325.928 148.318 323.396 148.336 321.844 149.908C320.293 151.481 320.31 154.014 321.883 155.565L347.512 180.847ZM350 131L346 131.027L346.321 178.026L350.321 177.999L354.321 177.972L354 130.973L350 131Z" fill="white"/>
<path d="M191.183 236.16C189.615 237.715 189.604 240.248 191.16 241.816L216.508 267.38C218.063 268.948 220.596 268.959 222.164 267.404C223.733 265.848 223.744 263.316 222.188 261.747L199.657 239.024L222.38 216.492C223.948 214.937 223.959 212.404 222.404 210.836C220.848 209.267 218.315 209.256 216.747 210.812L191.183 236.16ZM241 239.199L241.016 235.199L194.017 235L194 239L193.983 243L240.983 243.199L241 239.199Z" fill="white"/>
</svg>
