<svg width="689" height="368" viewBox="0 0 689 368" fill="none" xmlns="http://www.w3.org/2000/svg">
<rect width="689" height="368" fill="#B2B0B0"/>
<path d="M159 14C164.523 14 169 18.4772 169 24V54H689V368H0V54H13V24C13 18.4772 17.4772 14 23 14H159Z" fill="white"/>
<line x1="202.5" y1="14" x2="202.5" y2="49" stroke="black"/>
<line x1="220" y1="31.5" x2="185" y2="31.5" stroke="black"/>
<line x1="236.5" y1="14" x2="236.5" y2="49" stroke="black"/>
<path d="M260.246 39.0611L260.316 38.9812L247.038 24.6826L247.771 24.0019L260.976 38.2231L273.284 24.0942L274.038 24.7514L261.661 38.9602L261.733 39.0385L261 39.7183L260.246 39.0611Z" fill="black"/>
<path d="M95.0916 132.973L94.9941 132.918L84.9982 139.346L84.1767 138.775L94.0816 132.406L84.03 126.775L84.8134 126.154L94.9624 131.839L95.0534 131.781L95.8749 132.352L95.0916 132.973Z" fill="black"/>
<rect x="8" y="69" width="164" height="21" rx="10" fill="#B2B0B0"/>
<rect x="8" y="125" width="71" height="16" rx="8" fill="#B2B0B0"/>
<rect x="8" y="97" width="266" height="21" rx="10" fill="#B2B0B0"/>
<rect x="11" y="151" width="59" height="59" rx="10" fill="#B2B0B0"/>
<rect x="8" y="217" width="59" height="59" rx="10" fill="#B2B0B0"/>
<rect x="8" y="283" width="59" height="59" rx="10" fill="#B2B0B0"/>
<path d="M39.2929 360.707C39.6834 361.098 40.3166 361.098 40.7071 360.707L47.0711 354.343C47.4616 353.953 47.4616 353.319 47.0711 352.929C46.6805 352.538 46.0474 352.538 45.6569 352.929L40 358.586L34.3431 352.929C33.9526 352.538 33.3195 352.538 32.9289 352.929C32.5384 353.319 32.5384 353.953 32.9289 354.343L39.2929 360.707ZM40 349H39V360H40H41V349H40Z" fill="black"/>
</svg>
